<?xml version="1.0" encoding="UTF-8"?>
<svg width="20px" height="21px" viewBox="0 0 20 21" version="1.1" xmlns="http://www.w3.org/2000/svg" xmlns:xlink="http://www.w3.org/1999/xlink">
    <!-- Generator: sketchtool 64 (101010) - https://sketch.com -->
    <title>D9BFF35E-DD86-4AD3-9255-AD0AD7098EF2</title>
    <desc>Created with sketchtool.</desc>
    <g id="Configuração" stroke="none" stroke-width="1" fill="none" fill-rule="evenodd">
        <g id="Configuração_0" transform="translate(-323.000000, -183.000000)" fill="#FF8200" fill-rule="nonzero">
            <path d="M342.449067,188.810006 L340.648214,190.610859 C340.464613,190.79446 340.167726,190.79446 339.984125,190.610859 L335.648015,186.274749 C335.464414,186.091148 335.464414,185.794262 335.648015,185.61066 L337.448868,183.809808 C338.179366,183.07931 339.366913,183.07931 340.101317,183.809808 L342.449067,186.157557 C343.183471,186.888055 343.183471,188.075602 342.449067,188.810006 Z M334.101079,187.157597 L323.842858,197.415818 L323.0147,202.1621 C322.901414,202.802751 323.46003,203.35746 324.100681,203.248081 L328.846963,202.416017 L339.105184,192.157796 C339.288785,191.974195 339.288785,191.677308 339.105184,191.493707 L334.769074,187.157597 C334.581566,186.973996 334.28468,186.973996 334.101079,187.157597 Z M327.846924,196.536876 C327.632071,196.322024 327.632071,195.97826 327.846924,195.763408 L333.862788,189.747544 C334.07764,189.532692 334.421404,189.532692 334.636256,189.747544 C334.851108,189.962396 334.851108,190.30616 334.636256,190.521012 L328.620392,196.536876 C328.405539,196.751729 328.061776,196.751729 327.846924,196.536876 L327.846924,196.536876 Z M326.436711,199.822163 L328.311786,199.822163 L328.311786,201.240189 L325.792154,201.681612 L324.577262,200.46672 L325.018686,197.947089 L326.436711,197.947089 L326.436711,199.822163 Z" id="Shape"></path>
        </g>
    </g>
</svg>