<?xml version="1.0" encoding="UTF-8"?>
<svg width="17px" height="14px" viewBox="0 0 17 14" version="1.1" xmlns="http://www.w3.org/2000/svg" xmlns:xlink="http://www.w3.org/1999/xlink">
    <!-- Generator: sketchtool 64 (101010) - https://sketch.com -->
    <title>33BB2796-6517-4638-A3B6-D3F2D9B9BBFB</title>
    <desc>Created with sketchtool.</desc>
    <g id="Ponto-de-apoio" stroke="none" stroke-width="1" fill="none" fill-rule="evenodd">
        <g id="ponto_de_apoio0" transform="translate(-315.000000, -431.000000)" fill="#FFFFFF" fill-rule="nonzero">
            <g id="Group" transform="translate(315.333333, 431.000006)">
                <path d="M1.9303125,11.53125 L2.4771875,10.9015625 C2.58602596,10.7801977 2.64291309,10.6209811 2.635625,10.458125 L2.635625,10.3546875 C2.635625,10.125 2.515625,10 2.28125,10 L0.5,10 C0.361928813,10 0.25,10.1119288 0.25,10.25 L0.25,10.75 C0.25,10.8880712 0.361928813,11 0.5,11 L1.2134375,11 C1.09220428,11.1221282 0.977463189,11.2505339 0.8696875,11.3846875 L0.694375,11.6034375 C0.569375,11.761875 0.5303125,11.92 0.606875,12.0684375 L0.6396875,12.12875 C0.7334375,12.30875 0.83625,12.375 1.0225,12.375 L1.1703125,12.375 C1.493125,12.375 1.6684375,12.45125 1.6684375,12.6590625 C1.6684375,12.8065625 1.5371875,12.9159375 1.2196875,12.9159375 C1.05379189,12.9146278 0.889685078,12.8815306 0.73625,12.8184375 C0.5334375,12.6971875 0.369375,12.7090625 0.24875,12.9159375 L0.0740625,13.206875 C-0.0421875,13.3984375 -0.025625,13.573125 0.15625,13.705 C0.3971875,13.8515625 0.793125,14 1.3125,14 C2.38,14 2.828125,13.2890625 2.828125,12.62125 C2.8271875,12.171875 2.543125,11.69125 1.9303125,11.53125 L1.9303125,11.53125 Z M15.5,6 L5.5,6 C5.22385763,6 5,6.22385763 5,6.5 L5,7.5 C5,7.77614237 5.22385763,8 5.5,8 L15.5,8 C15.7761424,8 16,7.77614237 16,7.5 L16,6.5 C16,6.22385763 15.7761424,6 15.5,6 Z M15.5,1 L5.5,1 C5.22385763,1 5,1.22385763 5,1.5 L5,2.5 C5,2.77614237 5.22385763,3 5.5,3 L15.5,3 C15.7761424,3 16,2.77614237 16,2.5 L16,1.5 C16,1.22385763 15.7761424,1 15.5,1 Z M15.5,11 L5.5,11 C5.22385763,11 5,11.2238576 5,11.5 L5,12.5 C5,12.7761424 5.22385763,13 5.5,13 L15.5,13 C15.7761424,13 16,12.7761424 16,12.5 L16,11.5 C16,11.2238576 15.7761424,11 15.5,11 Z M0.5,4 L2.5,4 C2.63807119,4 2.75,3.88807119 2.75,3.75 L2.75,3.25 C2.75,3.11192881 2.63807119,3 2.5,3 L2,3 L2,0.25 C2,0.111928813 1.88807119,0 1.75,0 L1,0 C0.905496517,0.000168663316 0.819165225,0.0536118438 0.776875,0.138125 L0.526875,0.638125 C0.488130576,0.715551507 0.492204913,0.807512543 0.537644857,0.881209259 C0.583084801,0.954905975 0.663420726,0.999845617 0.75,1 L1,1 L1,3 L0.5,3 C0.361928813,3 0.25,3.11192881 0.25,3.25 L0.25,3.75 C0.25,3.88807119 0.361928813,4 0.5,4 Z M0.3778125,9 L2.5,9 C2.63807119,9 2.75,8.88807119 2.75,8.75 L2.75,8.25 C2.75,8.11192881 2.63807119,8 2.5,8 L1.29125,8 C1.3940625,7.6784375 2.801875,7.41625 2.801875,6.23625 C2.801875,5.328125 2.020625,5 1.4121875,5 C0.7446875,5 0.3559375,5.3125 0.1478125,5.5859375 C0.01125,5.760625 0.0540625,5.9246875 0.2353125,6.06625 L0.5034375,6.28125 C0.67875,6.42375 0.8471875,6.3584375 1.0071875,6.205 C1.08610861,6.12767164 1.19232259,6.0845573 1.3028125,6.085 C1.406875,6.085 1.5928125,6.13375 1.5928125,6.3584375 C1.59375,6.7559375 0,7.0409375 0,8.5184375 L0,8.6434375 C0,8.875 0.15875,9 0.3778125,9 Z" id="Shape"></path>
            </g>
        </g>
    </g>
</svg>