<svg xmlns="http://www.w3.org/2000/svg" width="96" height="122" viewBox="0 0 96 122">
    <g fill="#FFF">
        <path d="M50.694 12.307c-.325.282-.61.524-.854.806-2.724 2.58-5.57 5.038-8.74 7.094-5.204 3.346-10.896 5.442-16.913 6.692-4.269.886-8.578 1.37-12.969 1.572-.203 0-.407.04-.57.04-.04 0-.121.04-.243.12-.04.162-.081.404-.081.605-.163 7.135-.407 14.23-.488 21.364-.04 4.233.081 8.465.569 12.658.691 5.925 2.317 11.609 4.635 17.131 3.577 8.465 8.781 15.761 15.977 21.606 5.692 4.595 12.115 7.82 19.108 9.956.447.121.813.081 1.22-.04 14.839-4.595 25.978-13.625 33.093-27.41.488-.968.975-1.975 1.423-2.983.447-1.008 1.179-1.492 2.276-1.492 1.87 0 3.7-.04 5.57 0 1.91.04 2.765 1.29 2.033 3.064-7.684 18.421-20.856 31.159-40.005 37.568-1.3.444-2.602.766-3.903 1.17-.69.2-1.382.241-2.114.04-10.977-2.983-20.734-8.143-28.946-16.084-5.814-5.643-10.286-12.214-13.7-19.51-2.887-6.167-4.96-12.617-6.018-19.348-.447-2.862-.65-5.764-.813-8.667-.406-7.94-.244-15.922.081-23.863.122-3.144.285-6.329.448-9.473.04-1.088.122-2.176.203-3.265.122-1.531 1.22-2.62 2.764-2.7 1.383-.081 2.724-.04 4.107-.081 5.285-.08 10.489-.564 15.652-1.733 6.667-1.532 12.522-4.596 17.563-9.19 2.48-2.299 4.92-4.596 7.358-6.934.57-.524 1.139-.927 1.952-1.008 1.016-.08 1.83.242 2.561.927 2.073 1.975 4.106 3.95 6.22 5.885 2.643 2.5 5.489 4.757 8.7 6.53 4.27 2.338 8.823 3.709 13.62 4.515 3.74.605 7.48.968 11.261 1.008.407 0 .854 0 1.26.08 1.058.162 1.749.847 1.749 1.855.04 1.975.04 3.95 0 5.885-.04 1.21-.935 1.895-2.277 1.895-1.423-.04-2.846-.081-4.269-.162-3.943-.242-7.887-.725-11.79-1.491-8.903-1.774-16.79-5.563-23.458-11.73-.853-.806-1.707-1.572-2.56-2.378-.245-.162-.448-.323-.692-.524z"/>
        <path d="M47.1 67.37c.325-.45.529-.776.773-1.022l20.001-20.107.61-.613c.935-.817 1.992-.858 2.886 0 1.342 1.308 2.684 2.657 3.985 4.005.853.9.853 1.962.04 2.902-.122.164-.284.286-.406.409L50.799 77.26c-.812.818-1.748 1.471-2.926 1.676-1.708.245-3.212-.205-4.432-1.471L30.88 64.836c-.081-.081-.203-.163-.284-.286-.773-.899-.813-1.961 0-2.82 1.341-1.39 2.683-2.738 4.065-4.086.935-.9 1.992-.859 3.008.163 2.562 2.534 5.123 5.109 7.643 7.683.57.532 1.057 1.104 1.79 1.88z"/>
    </g>
</svg>
