<?xml version="1.0" encoding="UTF-8"?>
<svg width="17px" height="16px" viewBox="0 0 17 16" version="1.1" xmlns="http://www.w3.org/2000/svg" xmlns:xlink="http://www.w3.org/1999/xlink">
    <!-- Generator: sketchtool 64 (101010) - https://sketch.com -->
    <title>E157856C-3D2B-4438-A1E8-5F2A68051C91</title>
    <desc>Created with sketchtool.</desc>
    <g id="Ponto-de-apoio" stroke="none" stroke-width="1" fill="none" fill-rule="evenodd">
        <g id="ponto_de_apoio0" transform="translate(-315.000000, -356.000000)" fill="#FFFFFF" fill-rule="nonzero">
            <g id="Group" transform="translate(315.500000, 356.000006)">
                <path d="M8,5.25 C6.48125,5.25 5.25,6.48125 5.25,8 C5.25,9.51875 6.48125,10.75 8,10.75 C9.51875,10.75 10.75,9.51875 10.75,8 C10.75,6.48125 9.51875,5.25 8,5.25 Z M8,9.25 C7.310625,9.25 6.75,8.689375 6.75,8 C6.75,7.310625 7.310625,6.75 8,6.75 C8.689375,6.75 9.25,7.310625 9.25,8 C9.25,8.689375 8.689375,9.25 8,9.25 Z M15.5,7.25 L13.948125,7.25 C13.6090625,4.5371875 11.4628125,2.3909375 8.75,2.051875 L8.75,0.5 C8.75,0.22375 8.52625,0 8.25,0 L7.75,0 C7.47375,0 7.25,0.22375 7.25,0.5 L7.25,2.051875 C4.5371875,2.3909375 2.3909375,4.5371875 2.051875,7.25 L0.5,7.25 C0.22375,7.25 0,7.47375 0,7.75 L0,8.25 C0,8.52625 0.22375,8.75 0.5,8.75 L2.051875,8.75 C2.3909375,11.4628125 4.5371875,13.6090625 7.25,13.948125 L7.25,15.5 C7.25,15.77625 7.47375,16 7.75,16 L8.25,16 C8.52625,16 8.75,15.77625 8.75,15.5 L8.75,13.948125 C11.4628125,13.6090625 13.6090625,11.4625 13.948125,8.75 L15.5,8.75 C15.77625,8.75 16,8.52625 16,8.25 L16,7.75 C16,7.47375 15.77625,7.25 15.5,7.25 Z M8,12.5 C5.51875,12.5 3.5,10.48125 3.5,8 C3.5,5.51875 5.51875,3.5 8,3.5 C10.48125,3.5 12.5,5.51875 12.5,8 C12.5,10.48125 10.48125,12.5 8,12.5 Z" id="Shape"></path>
            </g>
        </g>
    </g>
</svg>