<?xml version="1.0" encoding="UTF-8"?>
<svg width="19px" height="24px" viewBox="0 0 19 24" version="1.1" xmlns="http://www.w3.org/2000/svg" xmlns:xlink="http://www.w3.org/1999/xlink">
    <!-- Generator: sketchtool 64 (101010) - https://sketch.com -->
    <title>E04BD9BC-C099-4424-9A5E-C90699B34F1A</title>
    <desc>Created with sketchtool.</desc>
    <g id="Ponto-de-apoio" stroke="none" stroke-width="1" fill="none" fill-rule="evenodd">
        <g id="ponto_de_apoio0" transform="translate(-314.000000, -472.000000)" fill="#FFFFFF" fill-rule="nonzero">
            <g id="Group" transform="translate(314.500000, 472.000000)">
                <path d="M9,0 C4.05,0 0,4.05 0,9 C0,12.6 1.2,13.65 8.1,23.55 C8.325,23.85 8.6625,24 9,24 C9.3375,24 9.675,23.85 9.9,23.55 C16.8,13.65 18,12.6 18,9 C18,4.05 13.95,0 9,0 Z M9,20.9104687 C8.32453125,19.9467187 7.71046875,19.07625 7.15265625,18.2854687 C2.73515625,12.0225 2.25,11.259375 2.25,9 C2.25,5.278125 5.278125,2.25 9,2.25 C12.721875,2.25 15.75,5.278125 15.75,9 C15.75,11.259375 15.2648437,12.0225 10.8473438,18.2854687 C10.2895312,19.07625 9.67546875,19.9467187 9,20.9104687 Z M12.75,7.875 L10.125,7.875 L10.125,5.25 C10.125,4.835625 9.789375,4.5 9.375,4.5 L8.625,4.5 C8.210625,4.5 7.875,4.835625 7.875,5.25 L7.875,7.875 L5.25,7.875 C4.835625,7.875 4.5,8.210625 4.5,8.625 L4.5,9.375 C4.5,9.789375 4.835625,10.125 5.25,10.125 L7.875,10.125 L7.875,12.75 C7.875,13.164375 8.210625,13.5 8.625,13.5 L9.375,13.5 C9.789375,13.5 10.125,13.164375 10.125,12.75 L10.125,10.125 L12.75,10.125 C13.164375,10.125 13.5,9.789375 13.5,9.375 L13.5,8.625 C13.5,8.210625 13.164375,7.875 12.75,7.875 Z" id="Shape"></path>
            </g>
        </g>
    </g>
</svg>