<svg xmlns="http://www.w3.org/2000/svg" width="51" height="51" viewBox="0 0 51 51">
    <path fill="#0A115F" d="M25.5.5C11.693.5.5 11.693.5 25.5s11.193 25 25 25 25-11.193 25-25-11.193-25-25-25zm0 4.839c11.142 0 20.161 9.017 20.161 20.161 0 11.142-9.017 20.161-20.161 20.161-11.142 0-20.161-9.017-20.161-20.161 0-11.142 9.017-20.161 20.161-20.161M39.633 18.47l-2.271-2.29c-.47-.474-1.237-.477-1.711-.007l-14.25 14.135-6.027-6.076c-.47-.474-1.236-.478-1.71-.007l-2.29 2.272c-.475.47-.478 1.236-.007 1.71l9.15 9.226c.471.474 1.237.477 1.712.007L39.627 20.18c.474-.47.477-1.236.006-1.71z"/>
</svg>
