<svg xmlns="http://www.w3.org/2000/svg" width="21" height="25" viewBox="0 0 21 25">
    <path fill="#FF8200" d="M12.563 20h1.124c.311 0 .563-.252.563-.562V9.313c0-.311-.252-.563-.563-.563h-1.124c-.311 0-.563.252-.563.563v10.125c0 .31.252.562.563.562zM20.25 4.25h-3.863l-1.594-2.658C14.386.914 13.653.5 12.863.5H8.137c-.79 0-1.523.415-1.93 1.092L4.614 4.25H.75C.336 4.25 0 4.586 0 5v.75c0 .414.336.75.75.75h.75v15.75c0 1.243 1.007 2.25 2.25 2.25h13.5c1.243 0 2.25-1.007 2.25-2.25V6.5h.75c.414 0 .75-.336.75-.75V5c0-.414-.336-.75-.75-.75zM8.055 2.886c.051-.084.143-.136.242-.136h4.406c.099 0 .19.052.242.136l.818 1.364H7.237l.818-1.364zM17.25 22.25H3.75V6.5h13.5v15.75zM7.312 20h1.125c.311 0 .563-.252.563-.562V9.313c0-.311-.252-.563-.563-.563H7.313c-.311 0-.563.252-.563.563v10.125c0 .31.252.562.563.562z"/>
</svg>
