<svg xmlns="http://www.w3.org/2000/svg" width="30" height="39" viewBox="0 0 30 39">
    <g fill="#A065FF">
        <path d="M15.842 3.923c-.102.09-.19.167-.267.257-.851.822-1.74 1.606-2.731 2.261-1.627 1.067-3.405 1.735-5.286 2.133-1.334.283-2.68.437-4.052.501-.064 0-.127.013-.178.013-.013 0-.038.013-.076.039-.013.051-.026.128-.026.192-.05 2.275-.127 4.536-.152 6.81-.013 1.35.025 2.699.178 4.035.216 1.889.724 3.7 1.448 5.46 1.118 2.7 2.744 5.025 4.993 6.888 1.778 1.465 3.786 2.493 5.971 3.174.14.038.254.025.381-.013 4.637-1.465 8.118-4.343 10.342-8.737.152-.309.305-.63.444-.951.14-.322.369-.476.712-.476.584 0 1.156-.013 1.74 0 .598.013.864.411.636.977-2.402 5.872-6.518 9.932-12.502 11.975-.406.142-.813.244-1.22.373-.215.064-.431.077-.66.013-3.43-.951-6.48-2.596-9.046-5.127-1.817-1.799-3.214-3.893-4.281-6.22-.902-1.965-1.55-4.02-1.88-6.167-.14-.912-.204-1.837-.255-2.762-.127-2.531-.076-5.076.026-7.607.038-1.002.089-2.017.14-3.02.012-.346.038-.693.063-1.04.038-.488.381-.835.864-.861.432-.026.851-.013 1.283-.026 1.652-.025 3.278-.18 4.891-.552 2.084-.489 3.913-1.465 5.489-2.93.775-.732 1.537-1.465 2.3-2.21.177-.167.355-.295.61-.321.317-.026.571.077.8.295.648.63 1.283 1.26 1.943 1.876.826.797 1.716 1.517 2.72 2.082 1.333.745 2.756 1.182 4.255 1.439 1.17.193 2.338.308 3.52.321.127 0 .266 0 .393.026.33.051.547.27.547.591.012.63.012 1.26 0 1.876-.013.385-.293.604-.712.604-.444-.013-.89-.026-1.334-.052-1.232-.077-2.464-.23-3.684-.475-2.782-.565-5.247-1.773-7.33-3.739-.268-.257-.534-.501-.801-.758-.076-.052-.14-.103-.216-.167z" transform="translate(.009)"/>
        <path d="M14.258 21.755c.103-.147.166-.254.243-.334l6.28-6.57.192-.201c.294-.267.626-.28.907 0 .42.427.842.868 1.25 1.309.269.293.269.64.013.948-.038.053-.089.093-.127.133l-7.596 7.947c-.255.267-.549.48-.919.548-.536.08-1.008-.067-1.391-.481l-3.945-4.127c-.026-.027-.064-.054-.09-.094-.242-.293-.255-.64 0-.921.422-.454.843-.895 1.277-1.336.294-.293.626-.28.945.054.804.828 1.608 1.67 2.4 2.51.179.174.332.361.561.615z" transform="translate(.009)"/>
    </g>
</svg>
