<svg xmlns="http://www.w3.org/2000/svg" width="104" height="94" viewBox="0 0 104 94">
    <g fill="none" fill-rule="evenodd" stroke="#212121" transform="translate(1.5 2)">
        <path stroke-linecap="square" stroke-width="3" d="M20.667 49.5L80.667 49.5M20.667 80.5L80.667 80.5"/>
        <rect width="62" height="52" x="18.667" y="38" stroke-width="4" rx="7"/>
        <path stroke-width="3" d="M50.218 0c12.95 0 23.449 10.498 23.449 23.449V38h0-46.898V23.449C26.77 10.499 37.268 0 50.218 0z"/>
        <path stroke-linejoin="round" stroke-width="3" d="M50.228 7.272c9.021 0 16.334 7.313 16.334 16.334v8.143h0-32.667v-8.143c0-9.021 7.313-16.334 16.333-16.334zM50.419 55c3.453 0 6.252 2.8 6.252 6.252 0 2.366-1.314 4.424-3.252 5.486V74h-6v-7.261c-1.938-1.062-3.252-3.12-3.252-5.487 0-3.453 2.799-6.252 6.252-6.252z"/>
        <circle cx="5.75" cy="41.25" r="5.75" stroke-width="3"/>
        <circle cx="91.628" cy="9.462" r="8.462" stroke-width="3"/>
    </g>
</svg>
