<svg xmlns="http://www.w3.org/2000/svg" width="104" height="104" viewBox="0 0 104 104">
    <g fill="none" fill-rule="evenodd" transform="translate(2.5 2)">
        <path stroke="#212121" stroke-linecap="round" stroke-linejoin="round" stroke-width="4" d="M34.872 55.897L57.436 91.282 78.974 11.795 0 33.59z"/>
        <path stroke="#212121" stroke-width="4" d="M34.872 55.897L78.974 11.795"/>
        <path stroke="#212121" stroke-linecap="round" stroke-linejoin="round" stroke-width="4" d="M25.128 50L17.179 74.872 42.051 67.179"/>
        <circle cx="20.513" cy="93.077" r="6.667" stroke="#212121" stroke-width="3"/>
        <circle cx="91.538" cy="34.359" r="8.462" stroke="#212121" stroke-width="3"/>
        <path fill="#000" fill-rule="nonzero" d="M82.712 57.692c-9.43 0-17.071 7.64-17.071 17.071 0 9.43 7.64 17.07 17.07 17.07 9.431 0 17.072-7.64 17.072-17.07s-7.641-17.07-17.071-17.07zm0 30.838c-7.606 0-13.767-6.16-13.767-13.767 0-7.606 6.16-13.767 13.767-13.767 7.606 0 13.767 6.16 13.767 13.767 0 7.606-6.161 13.767-13.767 13.767zm7.007-18.048l-4.281 4.281 4.281 4.282c.324.323.324.846 0 1.17l-1.556 1.555c-.323.324-.846.324-1.17 0l-4.281-4.281-4.282 4.281c-.323.324-.846.324-1.17 0l-1.555-1.555c-.324-.324-.324-.847 0-1.17l4.281-4.282-4.281-4.281c-.324-.324-.324-.847 0-1.17l1.555-1.556c.324-.324.847-.324 1.17 0l4.282 4.281 4.281-4.281c.324-.324.847-.324 1.17 0l1.556 1.555c.324.324.324.847 0 1.17z"/>
        <g stroke="#212121" stroke-linecap="round" stroke-linejoin="round" stroke-width="3">
            <path d="M0 10c0 2.832 2.296 5.128 5.128 5.128H25.77c2.762 0 5-2.238 5-5 0-2.761-2.238-5-5-5h-5.256 0" transform="translate(6.667)"/>
            <path d="M22.051 0L18.205 4.865 23.077 10" transform="translate(6.667)"/>
        </g>
    </g>
</svg>
