<svg xmlns="http://www.w3.org/2000/svg" width="24" height="25" viewBox="0 0 24 25">
    <path d="M23.294 7.148l-2.157 2.157c-.22.22-.576.22-.795 0l-5.193-5.193c-.22-.22-.22-.576 0-.796l2.156-2.156c.875-.875 2.297-.875 3.177 0l2.812 2.811c.88.875.88 2.297 0 3.177zm-9.998-1.979L1.01 17.454.019 23.14c-.136.767.533 1.431 1.3 1.3l5.685-.996 12.285-12.286c.22-.22.22-.575 0-.795l-5.193-5.193c-.225-.22-.58-.22-.8 0zm-7.49 11.233c-.257-.258-.257-.67 0-.927l7.205-7.204c.257-.258.669-.258.926 0 .257.257.257.669 0 .926l-7.205 7.205c-.257.257-.669.257-.926 0zm-1.689 3.934h2.246v1.699l-3.018.528-1.455-1.455.529-3.017h1.698v2.245z"/>
</svg>
