<svg xmlns="http://www.w3.org/2000/svg" width="100" height="100" viewBox="0 0 100 100">
    <g fill="none" fill-rule="evenodd" stroke="#212121">
        <g transform="translate(2 -4) translate(0 11.863)">
            <path stroke-linecap="square" stroke-width="3" d="M2.337 55.525L52.67 55.525M2.337 81.531L52.67 81.531"/>
            <rect width="52.011" height="43.622" x=".659" y="45.878" stroke-width="4" rx="7"/>
            <path stroke-width="3" d="M27.127 14c10.864 0 19.671 8.807 19.671 19.67v12.208h0H7.456V33.67C7.456 22.807 16.263 14 27.127 14z"/>
            <path stroke-linejoin="round" stroke-width="3" d="M27.136 20.1c7.567 0 13.702 6.135 13.702 13.702v6.832h0-27.404v-6.832c0-7.567 6.135-13.701 13.702-13.701zM27.296 60.139c2.896 0 5.245 2.348 5.245 5.245 0 1.984-1.103 3.711-2.728 4.602v6.092h-5.034v-6.092c-1.626-.89-2.728-2.618-2.728-4.602 0-2.897 2.348-5.245 5.245-5.245z"/>
            <circle cx="37.014" cy="5.563" r="4.824" stroke-width="3"/>
            <circle cx="77.098" cy="67.237" r="7.098" stroke-width="3"/>
        </g>
        <path stroke-linejoin="round" stroke-width="3" d="M77.358 8.852L95.51 42.137c1.587 2.91.515 6.554-2.394 8.14-.882.481-1.87.733-2.873.733H55.425c-3.313 0-6-2.686-6-6 0-1.016.258-2.016.75-2.905l18.418-33.28c1.337-2.416 4.38-3.29 6.796-1.953.831.46 1.514 1.146 1.969 1.98z" transform="translate(2 -4)"/>
        <path stroke-linejoin="round" stroke-width="3" d="M77.492 17.486l10.896 19.976c1.586 2.91.514 6.554-2.395 8.14-.881.481-1.869.733-2.873.733H62.925c-3.313 0-6-2.686-6-6 0-1.016.258-2.016.75-2.905l11.053-19.971c1.337-2.416 4.38-3.291 6.796-1.954.83.46 1.514 1.147 1.968 1.98z" transform="translate(2 -4)"/>
        <g transform="translate(2 -4) translate(71.247 22.763)">
            <path stroke-linecap="round" stroke-linejoin="round" stroke-width="3" d="M2.009 0.763L2.212 10.8"/>
            <circle cx="2.312" cy="16.359" r="2.312" stroke-width="2"/>
        </g>
    </g>
</svg>
