<?xml version="1.0" encoding="UTF-8"?>
<svg width="29px" height="25px" viewBox="0 0 29 25" version="1.1" xmlns="http://www.w3.org/2000/svg" xmlns:xlink="http://www.w3.org/1999/xlink">
    <!-- Generator: sketchtool 64 (101010) - https://sketch.com -->
    <title>405DA312-1689-433A-96C6-68E15845D532</title>
    <desc>Created with sketchtool.</desc>
    <g id="Chat" stroke="none" stroke-width="1" fill="none" fill-rule="evenodd">
        <g id="chat_2" transform="translate(-247.000000, -683.000000)" fill="#0A115F" fill-rule="nonzero">
            <g id="Group-7" transform="translate(0.000000, 659.000000)">
                <g id="Group-6">
                    <path d="M250.017624,48.4973687 C250.626932,48.4192523 251.236241,48.3098892 251.798679,48.1536564 C254.501508,47.4662318 256.93874,46.1851222 258.985391,44.3728209 C259.719685,44.4509374 260.485226,44.4978072 261.250767,44.4978072 C268.984294,44.4978072 275.249233,40.0295472 275.249233,34.4989036 C275.249233,28.9682601 268.984294,24.5 261.250767,24.5 C253.51724,24.5 247.252302,28.9838833 247.252302,34.4989036 C247.252302,37.6704309 249.314576,40.4982458 252.532973,42.3261704 C251.798679,44.9352593 250.673802,45.8726565 249.689535,46.9819099 C249.455186,47.263129 249.18959,47.4974783 249.267706,47.8880605 L249.267706,47.9036838 L249.267706,47.9036838 C249.345823,48.2786427 249.673912,48.5286153 250.017624,48.4973687 Z" id="ïµ-copy"></path>
                </g>
            </g>
        </g>
    </g>
</svg>