<?xml version="1.0" encoding="UTF-8"?>
<svg width="25px" height="24px" viewBox="0 0 25 24" version="1.1" xmlns="http://www.w3.org/2000/svg" xmlns:xlink="http://www.w3.org/1999/xlink">
    <!-- Generator: sketchtool 64 (101010) - https://sketch.com -->
    <title>30B00D3F-D232-4F45-8A36-3668875C9EEE</title>
    <desc>Created with sketchtool.</desc>
    <g id="Feed" stroke="none" stroke-width="1" fill="none" fill-rule="evenodd">
        <g id="Publicação_oficial" transform="translate(-96.000000, -552.000000)" fill="#0A115F" fill-rule="nonzero">
            <g id="Group" transform="translate(96.000000, 552.000000)">
                <path d="M23.9464,6.64795322 L21.7896749,8.80467836 C21.5697918,9.0245614 21.2142363,9.0245614 20.9943532,8.80467836 L15.8013708,3.61169591 C15.5814877,3.39181287 15.5814877,3.03625731 15.8013708,2.81637427 L17.9580959,0.659649123 C18.8329497,-0.215204678 20.255172,-0.215204678 21.1347041,0.659649123 L23.9464,3.47134503 C24.8259322,4.34619883 24.8259322,5.76842105 23.9464,6.64795322 Z M13.9487392,4.66900585 L1.66335909,16.954386 L0.671546229,22.6385965 C0.535873714,23.405848 1.20487956,24.0701754 1.97213102,23.9391813 L7.65634155,22.9426901 L19.9417217,10.6573099 C20.1616047,10.4374269 20.1616047,10.0818713 19.9417217,9.8619883 L14.7487392,4.66900585 C14.5241778,4.44912281 14.1686223,4.44912281 13.9487392,4.66900585 Z M6.45868073,15.9017544 C6.20137079,15.6444444 6.20137079,15.2327485 6.45868073,14.9754386 L13.6633591,7.77076023 C13.920669,7.51345029 14.3323649,7.51345029 14.5896749,7.77076023 C14.8469848,8.02807018 14.8469848,8.43976608 14.5896749,8.69707602 L7.38499652,15.9017544 C7.12768658,16.1590643 6.71599067,16.1590643 6.45868073,15.9017544 L6.45868073,15.9017544 Z M4.76979184,19.8362573 L7.01540588,19.8362573 L7.01540588,21.5345029 L3.99786202,22.0631579 L2.54289126,20.6081871 L3.07154623,17.5906433 L4.76979184,17.5906433 L4.76979184,19.8362573 Z" id="Shape"></path>
            </g>
        </g>
    </g>
</svg>