<?xml version="1.0" encoding="UTF-8"?>
<svg width="31px" height="24px" viewBox="0 0 31 24" version="1.1" xmlns="http://www.w3.org/2000/svg" xmlns:xlink="http://www.w3.org/1999/xlink">
    <!-- Generator: sketchtool 64 (101010) - https://sketch.com -->
    <title>814C0469-2061-459E-83BB-8792A6C6E322</title>
    <desc>Created with sketchtool.</desc>
    <g id="Feed" stroke="none" stroke-width="1" fill="none" fill-rule="evenodd">
        <g id="Home_oficial" transform="translate(-16.000000, -2647.000000)" fill="#0A115F" fill-rule="nonzero">
            <g id="Group" transform="translate(16.000000, 2647.000000)">
                <path d="M15.0206262,6.22649642 L5.14366187,14.3613178 L5.14366187,23.1411393 C5.14366187,23.6145262 5.5274178,23.9982821 6.00080473,23.9982821 L12.004019,23.9827464 C12.4757314,23.9803878 12.8568821,23.5973219 12.8568762,23.1256036 L12.8568762,17.9982821 C12.8568762,17.5248952 13.2406321,17.1411393 13.714019,17.1411393 L17.1425904,17.1411393 C17.6159774,17.1411393 17.9997333,17.5248952 17.9997333,17.9982821 L17.9997333,23.1218536 C17.9990214,23.3496457 18.089013,23.5683521 18.2498356,23.7296774 C18.4106583,23.8910026 18.6290829,23.9816761 18.8568762,23.981675 L24.8579476,23.9982821 C25.3313345,23.9982821 25.7150904,23.6145262 25.7150904,23.1411393 L25.7150904,14.355425 L15.840269,6.22649642 C15.6010704,6.03369008 15.2598248,6.03369008 15.0206262,6.22649642 Z M30.6222333,11.7556036 L17.0616976,0.58756785 C16.1124507,-0.193565464 14.7430873,-0.193565464 13.7938404,0.58756785 L0.233304729,11.7556036 C0.101836516,11.864266 0.0189397167,12.02072 0.0028637152,12.1905227 C-0.0132122863,12.3603255 0.038850419,12.5295567 0.147590444,12.6609607 L1.51366187,14.321675 C1.62210773,14.4535398 1.77855395,14.5368498 1.94849657,14.553231 C2.11843919,14.5696122 2.287918,14.517719 2.41955473,14.4089964 L15.0206262,4.03006785 C15.2598248,3.83726151 15.6010704,3.83726151 15.840269,4.03006785 L28.4418762,14.4089964 C28.5732802,14.5177364 28.7425114,14.5697992 28.9123141,14.5537231 C29.0821169,14.5376471 29.2385709,14.4547503 29.3472333,14.3232821 L30.7133047,12.6625678 C30.8219343,12.5303984 30.8733995,12.3603802 30.8563065,12.190154 C30.8392135,12.0199278 30.7549723,11.8635364 30.6222333,11.7556036 Z" id="Shape"></path>
            </g>
        </g>
    </g>
</svg>