<svg xmlns="http://www.w3.org/2000/svg" width="31" height="25" viewBox="0 0 31 25">
    <path fill="#0A115F" d="M30.577 12.061L17.378 1.217c-1.113-.927-2.73-.927-3.843 0L.335 12.061c-.173.146-.283.355-.303.582-.02.226.05.452.197.626l.548.659c.304.363.844.41 1.207.107l1.472-1.209v9.982c.003.945.769 1.711 1.714 1.714h6.858c.946-.003 1.712-.769 1.714-1.714v-5.572h3.429v5.572c.003.945.769 1.711 1.714 1.714h6.858c.94-.002 1.705-.76 1.714-1.701v-9.996l1.475 1.212c.363.304.903.256 1.207-.107l.548-.658c.147-.175.217-.401.197-.628-.02-.228-.131-.437-.307-.583zm-5.7 9.89h-5.134v-5.572c-.003-.946-.77-1.712-1.715-1.715h-5.143c-.946.003-1.712.77-1.714 1.715v5.572H6.028V10.714l9.429-7.747 9.429 7.744-.008 11.24z"/>
</svg>
