<svg xmlns="http://www.w3.org/2000/svg" width="24" height="24" viewBox="0 0 24 24">
    <path fill="#0A115F" d="M23.044 3.451L20.52.927c-1.236-1.236-3.237-1.236-4.474 0L1.168 15.707.015 22.691c-.125.76.533 1.419 1.294 1.294l6.984-1.153 14.78-14.877c1.235-1.234 1.247-3.228-.029-4.504zM5.655 14.156l7.981-7.929 4.137 4.137-7.93 7.98v-1.938h-2.25v-2.25H5.656zM3.85 21.475L2.525 20.15l.57-3.45.862-.856h1.95v2.25h2.25v1.95l-.858.862-3.45.569zM21.615 6.497l-.003.002-.002.003-2.251 2.266-4.127-4.127 2.266-2.251.003-.002.002-.003c.429-.428 1.124-.434 1.558 0l2.524 2.525c.463.463.466 1.15.03 1.587z"/>
</svg>
