<svg xmlns="http://www.w3.org/2000/svg" width="29" height="41" viewBox="0 0 29 41">
    <path fill="#F081B6" d="M13.048 38.065v-4.61c-.073-.012-.146-.037-.219-.049-3.075-.379-5.773-1.614-8.034-3.754-2.26-2.14-3.646-4.77-4.132-7.863-.11-.71-.146-1.419-.146-2.14v-1.32c.012-.869.62-1.48 1.47-1.48h5.92c.85 0 1.446.623 1.47 1.48.073 2.09.973 3.717 2.76 4.805 1.895 1.162 4.241.636 5.675-.758 1.033-1.003 1.544-2.226 1.544-3.669V8.032c0-2.226-1.483-4.243-3.561-4.891-2.747-.844-5.713.917-6.296 3.754-.036.159-.049.33-.073.489-.06.367-.267.55-.632.55H7.129c-.413 0-.656-.269-.62-.672.304-3.608 3.002-6.506 6.442-7.13 3.974-.721 7.414 1.59 8.75 4.94.39.979.584 2.006.584 3.058v10.65c0 3.865-2.795 7.191-6.587 7.815-2.553.428-4.753-.33-6.6-2.116-1.288-1.223-2.078-2.739-2.443-4.475-.012-.062-.037-.135-.06-.196H3.445v.306c.085 2.47.936 4.659 2.528 6.53 1.775 2.079 4.035 3.363 6.734 3.766 3.695.563 6.94-.44 9.65-3.033 1.75-1.675 2.795-3.741 3.124-6.15.085-.636.073-1.285.097-1.933.012-.146-.012-.293.012-.44.036-.33.255-.538.583-.538.572-.012 1.143-.012 1.726 0 .365 0 .596.232.608.612.012.33.012.66 0 1.002-.036 2.08-.474 4.06-1.434 5.894-2.018 3.89-5.19 6.298-9.42 7.325-.486.123-.996.171-1.495.257-.048.012-.097.025-.133.025-.061.232-.073 4.316 0 4.634h5.007c.122 0 .231 0 .353.025.255.049.45.244.45.501.012.624.012 1.247 0 1.883 0 .257-.195.453-.45.502-.11.024-.231.024-.353.024H7.761c-.122 0-.231 0-.353-.024-.255-.05-.437-.245-.437-.514-.012-.611-.012-1.235 0-1.847 0-.269.194-.476.462-.525.11-.025.206-.025.316-.025H13.048z"/>
</svg>
