<svg xmlns="http://www.w3.org/2000/svg" width="49" height="41" viewBox="0 0 49 41">
    <g fill="#EF8106">
        <path d="M6.966 38.137h33.986c.062-.19.075-4.195.013-4.61h-6.357c-.622.047-1.045-.405-1.033-.975.025-2.234.013-4.467.013-6.701 0-.867-.038-1.723-.224-2.578-.747-3.517-3.595-6.38-7.24-7.165-3.322-.713-6.27.107-8.758 2.329-1.518 1.354-2.426 3.041-2.787 4.99-.087.452-.136.903-.136 1.355-.013 1.877-.013 3.742 0 5.62 0 .07.012.154.012.261.124 0 .236.012.348.012h7.962c.498 0 .722.214.722.7v1.45c0 .488-.212.69-.734.69H12.427c-.485 0-.808-.214-.945-.595-.037-.095-.037-.201-.037-.308 0-2.543-.038-5.074 0-7.617.087-5.441 3.956-10.182 9.305-11.584 4.217-1.105 8.894.06 12.017 3.006 1.915 1.818 3.135 3.98 3.595 6.523.124.653.174 1.319.186 1.984.025 1.782.013 3.577.013 5.359v.38H42.93c.137 0 .286.012.41.036.374.095.61.38.648.736.012.095.012.19.012.285V40.192c-.025.416-.323.725-.759.784-.112.012-.236.024-.36.024H5.124c-.124 0-.236 0-.36-.024-.436-.06-.735-.38-.76-.796-.012-.083 0-.166 0-.261v-8.78-.262c.038-.297.25-.523.573-.523.622-.012 1.231-.012 1.853 0 .324.012.535.226.56.535.013.095 0 .19 0 .285v6.582c-.025.143-.025.25-.025.38zM41.149 6.002c.172-.013.308.049.43.172.407.407.826.813 1.233 1.232.259.259.246.603-.012.874-.16.173-.333.333-.505.506l-3.87 3.868-.184.184c-.247.21-.567.222-.801 0-.431-.419-.862-.837-1.269-1.269-.234-.246-.222-.566 0-.825l.062-.061c1.478-1.479 2.957-2.957 4.423-4.435.148-.148.296-.259.493-.246zM44.983 23c-1.057 0-2.126-.013-3.183 0-.528.012-.824-.275-.798-.788.012-.475 0-.962 0-1.437 0-.113.012-.238.038-.35.078-.238.245-.388.516-.413.103-.012.206-.012.309-.012h6.455c.438.012.657.225.67.662.013.563.013 1.125 0 1.675-.013.425-.244.663-.708.663h-3.299zM4 20.006h3.409c.349.025.581.238.581.576.013.614.013 1.228 0 1.83 0 .337-.245.55-.58.588H.564c-.323-.038-.555-.263-.555-.589-.013-.614-.013-1.228 0-1.83 0-.337.258-.575.62-.575.426-.013.852 0 1.265 0H4zM23.006 3.995V.838v-.22c.024-.373.25-.605.623-.618.587.013 1.173.013 1.76.013.361 0 .574.219.599.593.012.103.012.206.012.309v6.186c0 .116 0 .232-.012.335-.038.31-.25.541-.55.554-.623.013-1.26.013-1.883 0-.3-.013-.512-.245-.55-.554-.012-.077 0-.167 0-.245V3.995zM7.848 6c.148.061.27.11.382.184.061.037.11.11.172.16 1.43 1.42 2.858 2.842 4.287 4.263.062.062.11.11.16.172.197.245.21.551-.012.772-.419.441-.85.87-1.294 1.287-.221.22-.53.208-.776.012-.061-.05-.11-.11-.172-.16-1.43-1.433-2.858-2.855-4.275-4.264-.061-.061-.123-.122-.184-.196-.185-.245-.185-.539.024-.747.42-.441.85-.87 1.294-1.287.098-.098.258-.135.394-.196z"/>
        <path d="M23.988 19.463v.706c0 .523-.122.669-.622.778-.854.183-1.513.645-1.989 1.375-.22.328-.354.693-.44 1.07-.097.462-.268.608-.743.608H18.73c-.562 0-.781-.255-.72-.803.28-2.42 2.196-4.536 4.611-5.072.232-.048.464-.097.696-.121.415-.037.67.194.683.608 0 .28-.012.56-.012.851z"/>
    </g>
</svg>
