<svg xmlns="http://www.w3.org/2000/svg" width="25" height="24" viewBox="0 0 25 24">
    <path fill="#0A115F" d="M12.75 0c-6.627 0-12 5.375-12 12 0 6.629 5.373 12 12 12s12-5.371 12-12c0-6.625-5.373-12-12-12zm0 21.677c-5.348 0-9.677-4.327-9.677-9.677 0-5.347 4.329-9.677 9.677-9.677 5.346 0 9.677 4.329 9.677 9.677s-4.327 9.677-9.677 9.677zm2.032-5.032c0 1.12-.911 2.032-2.032 2.032-1.12 0-2.032-.911-2.032-2.032 0-1.12.911-2.032 2.032-2.032 1.12 0 2.032.912 2.032 2.032zM10.845 6.416l.329 6.58c.015.31.27.552.58.552h1.992c.31 0 .565-.242.58-.551l.329-6.58c.017-.333-.248-.61-.58-.61h-2.65c-.332 0-.597.277-.58.61z"/>
</svg>
