<svg xmlns="http://www.w3.org/2000/svg" width="28" height="24" viewBox="0 0 28 24">
    <path fill="#0A115F" d="M14.286 0C6.71 0 .57 4.987.57 11.143c0 2.55 1.066 4.886 2.834 6.766-.798 2.11-2.459 3.9-2.485 3.921-.354.375-.45.922-.247 1.393.204.472.67.777 1.184.777 3.295 0 5.893-1.377 7.452-2.48 1.548.487 3.22.766 4.977.766C21.86 22.286 28 17.298 28 11.143 28 4.987 21.86 0 14.286 0zm0 19.714c-1.43 0-2.845-.22-4.2-.648L8.87 18.68l-1.045.74c-.766.54-1.816 1.146-3.08 1.553.39-.648.771-1.377 1.066-2.153l.568-1.506-1.104-1.168c-.97-1.034-2.132-2.742-2.132-5.003 0-4.725 4.998-8.572 11.143-8.572 6.144 0 11.143 3.847 11.143 8.572s-4.999 8.571-11.143 8.571z"/>
</svg>
