<svg xmlns="http://www.w3.org/2000/svg" width="182" height="249" viewBox="0 0 182 249">
    <g fill="none" fill-rule="evenodd">
        <path stroke="#EF8106" stroke-dasharray="3" stroke-width="2" d="M177 4L99.5 61 36 103l53.5 35H148M161 240.5l-29-22-25-22-44.5 6.5-7 44.5-51-68V141H36v-38"/>
        <circle cx="177.495" cy="4.495" r="4.495" fill="#FA9A2E"/>
        <circle cx="144.495" cy="137.495" r="4.495" fill="#FA9A2E"/>
        <circle cx="161.495" cy="239.495" r="4.495" fill="#FA9A2E"/>
        <circle cx="131.495" cy="218.495" r="4.495" fill="#FA9A2E"/>
        <circle cx="107.495" cy="196.495" r="4.495" fill="#FA9A2E"/>
        <circle cx="62.495" cy="203.495" r="4.495" fill="#FA9A2E"/>
        <circle cx="54.495" cy="244.495" r="4.495" fill="#FA9A2E"/>
        <circle cx="4.495" cy="179.495" r="4.495" fill="#FA9A2E"/>
        <circle cx="4.495" cy="141.495" r="4.495" fill="#FA9A2E"/>
        <circle cx="36.495" cy="141.495" r="4.495" fill="#FA9A2E"/>
        <circle cx="36.495" cy="103.495" r="4.495" fill="#FA9A2E"/>
        <circle cx="89.495" cy="137.495" r="4.495" fill="#FA9A2E"/>
        <circle cx="93.495" cy="63.495" r="4.495" fill="#FA9A2E"/>
    </g>
</svg>
