<?xml version="1.0" encoding="UTF-8"?>
<svg width="123px" height="235px" viewBox="0 0 123 235" version="1.1" xmlns="http://www.w3.org/2000/svg" xmlns:xlink="http://www.w3.org/1999/xlink">
    <!-- Generator: sketchtool 64 (101010) - https://sketch.com -->
    <title>A25F9D4F-D7E3-4F25-9073-1AA91E5E7158</title>
    <desc>Created with sketchtool.</desc>
    <g id="Icones-constelação" stroke="none" stroke-width="1" fill="none" fill-rule="evenodd">
        <g id="Virgem" transform="translate(-25.000000, 0.000000)">
            <g id="Group" transform="translate(25.000000, -0.000000)">
                <g id="Group-7" transform="translate(4.000000, 4.000000)" stroke="#EF8106" stroke-dasharray="3" stroke-width="2">
                    <path d="M95,0 L95,52.4025424 L85.5609756,75.2627119 L55.1463415,83 L9,63.3050847" id="Path-10"></path>
                    <path d="M56,133.888889 L114,151 L95.7212121,121.768519 L86.230303,74" id="Path-11"></path>
                    <line x1="55.75" y1="135" x2="55.25" y2="83" id="Path-12"></line>
                    <path d="M46,226 L61.434555,192.901408 L87.0418848,201.352113 L113,151" id="Path-13"></path>
                    <path d="M0,203 L27.6751592,158.185567 L55,134" id="Path-14"></path>
                </g>
                <circle id="Oval-Copy-8" fill="#FA9A2E" cx="4.495" cy="207.495" r="4.495"></circle>
                <circle id="Oval-Copy-9" fill="#FA9A2E" cx="50.495" cy="230.495" r="4.495"></circle>
                <circle id="Oval-Copy-10" fill="#FA9A2E" cx="91.495" cy="204.495" r="4.495"></circle>
                <circle id="Oval-Copy-11" fill="#FA9A2E" cx="64.495" cy="197.495" r="4.495"></circle>
                <circle id="Oval-Copy-12" fill="#FA9A2E" cx="33.495" cy="161.495" r="4.495"></circle>
                <circle id="Oval-Copy-13" fill="#FA9A2E" cx="60.495" cy="138.495" r="4.495"></circle>
                <circle id="Oval-Copy-14" fill="#FA9A2E" cx="118.495" cy="154.495" r="4.495"></circle>
                <circle id="Oval-Copy-15" fill="#FA9A2E" cx="99.495" cy="124.495" r="4.495"></circle>
                <circle id="Oval-Copy-16" fill="#FA9A2E" cx="89.495" cy="78.495" r="4.495"></circle>
                <circle id="Oval-Copy-17" fill="#FA9A2E" cx="58.495" cy="86.495" r="4.495"></circle>
                <circle id="Oval-Copy-18" fill="#FA9A2E" cx="14.495" cy="67.495" r="4.495"></circle>
                <circle id="Oval-Copy-19" fill="#FA9A2E" cx="99.495" cy="4.495" r="4.495"></circle>
            </g>
        </g>
    </g>
</svg>