<?xml version="1.0" encoding="UTF-8"?>
<svg width="180px" height="153px" viewBox="0 0 180 153" version="1.1" xmlns="http://www.w3.org/2000/svg" xmlns:xlink="http://www.w3.org/1999/xlink">
    <!-- Generator: sketchtool 64 (101010) - https://sketch.com -->
    <title>3D80D780-66E4-416C-942D-DF84E64F7C35</title>
    <desc>Created with sketchtool.</desc>
    <g id="Icones-constelação" stroke="none" stroke-width="1" fill="none" fill-rule="evenodd">
        <g id="Peixes">
            <g id="Group" transform="translate(-0.000000, -0.000000)">
                <g id="Path-30" transform="translate(4.000000, 4.000000)" stroke="#EF8106" stroke-dasharray="3" stroke-width="2">
                    <path d="M14.8946459,0 L0,18.8752643 L17.3264249,30.7484144 L17.3264249,70.6300211 L17.3264249,108.38055 L14.8946459,144 L38.9084629,122.993658 L59.2746114,108.38055 L75.5,105 L117.333333,85.5475687 L144.082902,79.154334 L157,88.5 L174,79.5 L168.096718,62.1057082 L148.642487,59.0613108 L144.082902,75.1966173" id="Path-15"></path>
                </g>
                <circle id="Oval-Copy-8" fill="#FA9A2E" cx="19.495" cy="4.495" r="4.495"></circle>
                <circle id="Oval-Copy-9" fill="#FA9A2E" cx="4.495" cy="22.495" r="4.495"></circle>
                <circle id="Oval-Copy-10" fill="#FA9A2E" cx="21.495" cy="33.495" r="4.495"></circle>
                <circle id="Oval-Copy-11" fill="#FA9A2E" cx="19.495" cy="148.495" r="4.495"></circle>
                <circle id="Oval-Copy-12" fill="#FA9A2E" cx="62.495" cy="111.495" r="4.495"></circle>
                <circle id="Oval-Copy-20" fill="#FA9A2E" cx="42.495" cy="127.495" r="4.495"></circle>
                <circle id="Oval-Copy-21" fill="#FA9A2E" cx="21.495" cy="103.495" r="4.495"></circle>
                <circle id="Oval-Copy-22" fill="#FA9A2E" cx="21.495" cy="67.495" r="4.495"></circle>
                <circle id="Oval-Copy-17" fill="#FA9A2E" cx="85.495" cy="106.495" r="4.495"></circle>
                <circle id="Oval-Copy-13" fill="#FA9A2E" cx="121.495" cy="88.495" r="4.495"></circle>
                <circle id="Oval-Copy-14" fill="#FA9A2E" cx="147.495" cy="83.495" r="4.495"></circle>
                <circle id="Oval-Copy-15" fill="#FA9A2E" cx="151.495" cy="62.495" r="4.495"></circle>
                <circle id="Oval-Copy-16" fill="#FA9A2E" cx="171.495" cy="66.495" r="4.495"></circle>
                <circle id="Oval-Copy-18" fill="#FA9A2E" cx="175.495" cy="83.495" r="4.495"></circle>
                <circle id="Oval-Copy-19" fill="#FA9A2E" cx="160.495" cy="92.495" r="4.495"></circle>
            </g>
        </g>
    </g>
</svg>