<?xml version="1.0" encoding="UTF-8"?>
<svg width="175px" height="151px" viewBox="0 0 175 151" version="1.1" xmlns="http://www.w3.org/2000/svg" xmlns:xlink="http://www.w3.org/1999/xlink">
    <!-- Generator: sketchtool 64 (101010) - https://sketch.com -->
    <title>CC40CC7A-DE7B-4EF9-9F30-6E397755DD4B</title>
    <desc>Created with sketchtool.</desc>
    <g id="Icones-constelação" stroke="none" stroke-width="1" fill="none" fill-rule="evenodd">
        <g id="Sagitário" transform="translate(-4.000000, -2.000000)">
            <g id="Group" transform="translate(4.000000, 2.000000)">
                <line x1="40.5" y1="141.5" x2="69" y2="124" id="Path-31" stroke="#EF8106" stroke-width="2" stroke-dasharray="3"></line>
                <g id="Group-14" transform="translate(4.000000, 4.000000)" stroke="#EF8106" stroke-dasharray="3" stroke-width="2">
                    <path d="M24,0 L43.3922652,17 L57.7127072,17 L78,5.56363636" id="Path-19"></path>
                    <path d="M58,14.7 L70.4368932,40.2 L85.538835,48 L102.713592,40.2 L119,9" id="Path-20"></path>
                    <path d="M166,43.3529412 L137.945205,66 L115.150685,59.5294118 L102,41" id="Path-21"></path>
                    <path d="M127,98 L110,80.9147287 L114.77193,60" id="Path-22"></path>
                    <path d="M64.0714286,142 L35.9495798,136.668622 L24.0630252,114.750733 L0,75.6539589 L24.0630252,45.1466276 L56.8235294,53.4398827 L69,41" id="Path-23"></path>
                    <path d="M85,48 L65.5483871,66 L58,52.8813559" id="Path-24"></path>
                </g>
                <circle id="Oval-Copy-8" fill="#FA9A2E" cx="68.495" cy="146.495" r="4.495"></circle>
                <circle id="Oval-Copy-27" fill="#FA9A2E" cx="68.495" cy="123.495" r="4.495"></circle>
                <circle id="Oval-Copy-9" fill="#FA9A2E" cx="40.495" cy="141.495" r="4.495"></circle>
                <circle id="Oval-Copy-26" fill="#FA9A2E" cx="29.495" cy="119.495" r="4.495"></circle>
                <circle id="Oval-Copy-10" fill="#FA9A2E" cx="4.495" cy="81.495" r="4.495"></circle>
                <circle id="Oval-Copy-11" fill="#FA9A2E" cx="27.495" cy="49.495" r="4.495"></circle>
                <circle id="Oval-Copy-12" fill="#FA9A2E" cx="70.495" cy="70.495" r="4.495"></circle>
                <circle id="Oval-Copy-13" fill="#FA9A2E" cx="60.495" cy="55.495" r="4.495"></circle>
                <circle id="Oval-Copy-16" fill="#FA9A2E" cx="130.495" cy="102.495" r="4.495"></circle>
                <circle id="Oval-Copy-17" fill="#FA9A2E" cx="119.495" cy="64.495" r="4.495"></circle>
                <circle id="Oval-Copy-18" fill="#FA9A2E" cx="115.495" cy="84.495" r="4.495"></circle>
                <circle id="Oval-Copy-19" fill="#FA9A2E" cx="143.495" cy="70.495" r="4.495"></circle>
                <circle id="Oval-Copy-20" fill="#FA9A2E" cx="170.495" cy="48.495" r="4.495"></circle>
                <circle id="Oval-Copy-21" fill="#FA9A2E" cx="121.495" cy="13.495" r="4.495"></circle>
                <circle id="Oval-Copy-22" fill="#FA9A2E" cx="85.495" cy="8.495" r="4.495"></circle>
                <circle id="Oval-Copy-23" fill="#FA9A2E" cx="64.495" cy="20.495" r="4.495"></circle>
                <circle id="Oval-Copy-24" fill="#FA9A2E" cx="29.495" cy="4.495" r="4.495"></circle>
                <circle id="Oval-Copy-25" fill="#FA9A2E" cx="107.495" cy="45.495" r="4.495"></circle>
                <circle id="Oval-Copy-14" fill="#FA9A2E" cx="74.495" cy="45.495" r="4.495"></circle>
                <circle id="Oval-Copy-15" fill="#FA9A2E" cx="88.495" cy="52.495" r="4.495"></circle>
            </g>
        </g>
    </g>
</svg>