<svg xmlns="http://www.w3.org/2000/svg" width="28" height="24" viewBox="0 0 28 24">
    <g fill="#FCFCFC">
        <path d="M13.273 24H4.378c-2.07 0-3.843-1.439-4.273-3.488-.242-1.157-.063-2.268.52-3.288.635-1.111 1.29-2.204 1.943-3.297.17-.282.394-.337.672-.173.331.2.663.4.994.61.287.182.34.4.17.701-.635 1.084-1.271 2.159-1.916 3.243-.215.364-.34.747-.359 1.175-.027.883.502 1.949 1.73 2.258.223.055.456.082.68.082 5.886 0 11.78.01 17.666 0 1.075 0 1.952-.646 2.221-1.657.18-.674.072-1.312-.286-1.913-.502-.847-1.013-1.694-1.514-2.541L15.325 3.453c-.144-.237-.305-.465-.484-.665-.296-.319-.68-.5-1.102-.592-.331-.073-.439-.2-.439-.537V.502c0-.382.188-.546.556-.492 1.388.192 2.445.902 3.18 2.104.636 1.038 1.245 2.095 1.872 3.142 2.365 3.971 4.73 7.951 7.095 11.922.43.72.68 1.494.663 2.341-.054 1.913-.94 3.288-2.652 4.09-.582.273-1.21.391-1.854.391h-8.887z" transform="translate(.917)"/>
        <path d="M14.667 10.671v3.401c0 .072 0 .145-.011.217-.023.199-.2.362-.445.37-.578.01-1.155.01-1.733 0-.256-.008-.434-.162-.467-.379-.011-.054-.011-.118-.011-.172V7.216c0-.081.011-.172.033-.253.067-.172.223-.29.445-.29.566-.009 1.133-.009 1.7 0 .255 0 .444.172.466.38.012.073 0 .145 0 .217.023 1.131.023 2.27.023 3.401zM14.662 17.334v.855c0 .305-.2.462-.59.471-.49.009-.98.009-1.47 0-.402-.009-.602-.174-.602-.488V16.48c0-.314.212-.471.613-.48h1.47c.378 0 .579.157.579.454.01.296 0 .584 0 .88z" transform="translate(.917)"/>
    </g>
</svg>
