<svg xmlns="http://www.w3.org/2000/svg" fill="none" viewBox="0 0 56 51.961"><defs><mask id="a"><path fill="#fff" d="M0 0h300v300H0z"/><path fill="#000" d="M193 95h-65.9l-4.9 11.2 2.3 3.8 65.3-1.9 4.9-4.6 1.8-6.5zm-9 28h-65.9l-4.9 11.2 2.3 3.8 65.3-1.9 4.9-4.6 1.8-6.5z"/></mask></defs><g fill="#0B0F5E" mask="url(#a)" transform="translate(-15.966 -18.084) scale(.29357)"><path d="m133 67-21.9 1.9L59 201l7 16 11-6 106-10 39-114-5.5-20z"/><path d="M187.4 238.4h-99c-6.9 0-13.4-2.3-19.6-7a36.2 36.2 0 0 1-12.7-16.8c-2.2-6.1-2.3-12.1-.2-17.7l20.4-57.8A4315.2 4315.2 0 0 1 99 76.5a57 57 0 0 1 4.7-8.9c1.1-1.3 2.5-2.6 4.2-3.7 2.2-1.4 4.5-2.2 7-2.3h92.4c7.2 0 13 3 17 8.5s5 12.1 2.9 19.1l-29.4 97.3c-3 9.7-6 15.8-9.3 19-3.7 3.7-9.6 5.4-18 5.4H77.3a6 6 0 0 1-9-7.9c1.4-1.8 4-4 9-4h93.3c7 0 9-1.6 9.6-2 .6-.7 3-3.5 6-14l29.5-97.2c1.3-4.6 0-7.2-1-8.7-1.8-2.5-4-3.5-7.4-3.5h-81.7a1183 1183 0 0 0-11 .3c-.8.5-1.3 1-1.5 1.2a48.4 48.4 0 0 0-3 5.8l-1.6 3.9A25461.5 25461.5 0 0 0 67.2 201c-1.1 3-1 6 .2 9.5A24 24 0 0 0 76 222c4.1 3 8.1 4.5 12.4 4.5h99c3.4 0 6.5-1.1 9.5-3.5 3.1-2.3 5.1-5 6.1-8.4l29.5-97.3c1-3.4.8-6-1-8.5-.8-1.1-2-2-3.7-2.6a6.017 6.017 0 0 1 4.4-11.2 20.1 20.1 0 0 1 9 6.8c4 5.6 5 12.1 2.8 19L214.5 218a28 28 0 0 1-10.3 14.6c-5.2 4-10.8 6-16.8 6z"/></g></svg>