<svg fill="none" xmlns="http://www.w3.org/2000/svg" viewBox="0 0 56 52"><g clip-path="url(#a)" fill="#0B0F5E"><path d="M38.6 51.2H10.3c-2 0-3.8-.7-5.6-2-1.7-1.3-3-3-3.6-4.8a7.3 7.3 0 0 1-.1-5.1L7 22.8a1237.7 1237.7 0 0 1 7-19.2l.8-1.3c.3-.4.7-.7 1.2-1 .6-.5 1.3-.7 2-.7h26.4c2 0 3.8.8 4.9 2.4a6.1 6.1 0 0 1 .8 5.5l-8.4 27.8a13 13 0 0 1-2.7 5.5c-1 1-2.7 1.5-5.1 1.5H7.1a1.7 1.7 0 0 1-2.6-2.2c.4-.6 1.2-1.2 2.6-1.2h26.7c2 0 2.6-.5 2.7-.6.2-.2.9-1 1.8-4l8.4-27.8c.4-1.3 0-2-.3-2.5-.5-.7-1.1-1-2.1-1H20.9a338.8 338.8 0 0 0-3.1 0 2 2 0 0 0-.5.5L17 5l-.5 1-.5 1.1A7290.7 7290.7 0 0 0 4.2 40.5c-.3.8-.3 1.7.1 2.7a6.9 6.9 0 0 0 2.5 3.2c1.1 1 2.3 1.3 3.5 1.3h28.3c1 0 1.9-.3 2.8-1 .9-.6 1.4-1.4 1.7-2.4l8.5-27.8c.3-1 .2-1.7-.3-2.5l-1-.7a1.7 1.7 0 0 1 1.2-3.2c1 .4 2 1 2.5 2a6 6 0 0 1 .8 5.4l-8.4 27.8a8 8 0 0 1-3 4.2 7.8 7.8 0 0 1-4.8 1.7Z"/><path d="M38.6 51.8H10.3a10.9 10.9 0 0 1-9.8-7.2 7.8 7.8 0 0 1 0-5.5l.2-.5A1802.2 1802.2 0 0 1 13.3 3.4l1-1.5L15.4.7C16.3.3 17 0 18 0h26.4c2.3 0 4.1 1 5.4 2.7a6.7 6.7 0 0 1 .8 6l-.2.8h1.4a6.3 6.3 0 0 1 2.8 2.2 6.6 6.6 0 0 1 .9 6l-8.5 27.8a8.6 8.6 0 0 1-3.1 4.5 8.4 8.4 0 0 1-5.2 1.8ZM1.4 40c-.4 1.4-.3 2.7.2 4.2A9.8 9.8 0 0 0 5 48.7a8.7 8.7 0 0 0 5.3 2h28.3c1.6 0 3.1-.6 4.5-1.7 1.4-1 2.3-2.3 2.7-3.8l8.5-27.9c.5-1.8.3-3.5-.7-5a5.2 5.2 0 0 0-2.3-1.6 1.1 1.1 0 0 0-.9 2c.6.3 1 .6 1.3 1 .6.9.7 1.8.4 3l-8.4 27.8c-.4 1-1 2-2 2.7a5 5 0 0 1-3 1.1H10.2C9 48.3 7.7 48 6.4 47a7.4 7.4 0 0 1-2.6-3.5 4.4 4.4 0 0 1-.1-3.1L15.5 7a21.2 21.2 0 0 0 1-2.1c0-.4.2-.6.4-.8l.6-.5.5-.1h26.3a3 3 0 0 1 2.6 1.2c.6.8.7 1.8.4 3l-8.5 27.8c-.9 3-1.5 4-1.9 4.2-.2.3-1 .8-3.1.8H7c-1.2 0-1.8.5-2 .9a1.1 1.1 0 0 0 1.6 1.5l.2-.2h26.9c2.2 0 3.8-.4 4.7-1.3 1-.9 1.7-2.6 2.5-5.2l8.4-27.9c.6-1.8.3-3.5-.7-5a5.2 5.2 0 0 0-4.4-2.2H17.9c-.6 0-1.2.3-1.7.6a4.7 4.7 0 0 0-1.8 2.2 17 17 0 0 0-1 2.2l-6 16.8-5.8 16.6-.2.5Zm4 4.3c.5.6 1 1.2 1.7 1.7 1 .8 2.1 1.2 3.2 1.2h28.3c.9 0 1.6-.3 2.4-.9a4 4 0 0 0 1.6-2.1L51 16.3c.3-.7.2-1.3-.2-2L50 14l-.9-.6-7 23.2c-.8 2.9-1.7 4.7-2.8 5.7-1.1 1.1-3 1.7-5.5 1.7H7.3c-.5.4-1.2.5-1.8.4ZM16.7 7.4 5 39.8a4 4 0 0 1 2-.5h26.7c1.9 0 2.3-.4 2.3-.4.1 0 .7-.7 1.6-3.7l8.5-27.9c.3-1 0-1.6-.3-2-.4-.5-.8-.7-1.6-.7H18l-.2.2-.3.6a14.7 14.7 0 0 0-1 2Z"/><path d="M20 13.1v.7l.6.3h18.7c.3 0 .5-.1.8-.3.3-.2.4-.4.5-.7l.7-2-.1-.7c-.1-.2-.3-.2-.6-.2H21.9c-.3 0-.5 0-.8.2l-.5.7-.6 2Z"/><path d="M39.3 14.7H20.6c-.4 0-.8-.2-1-.6-.2-.2-.3-.6-.2-1.2l.7-2c0-.3.3-.6.7-1 .3-.2.7-.3 1.1-.3h18.7c.5 0 .9.2 1 .5.2.3.4.7.2 1.2l-.6 2a2 2 0 0 1-.7 1c-.4.2-.8.4-1.2.4Zm-18.8-1.4v.2h18.8c.2 0 .3 0 .5-.2l.3-.4.6-2v-.1H22l-.4.1c-.2.1-.3.3-.3.4l-.7 2ZM17.4 21v.7l.7.2h18.7c.2 0 .5 0 .8-.2l.5-.7.6-2v-.7c-.2-.2-.4-.3-.7-.3H19.4c-.3 0-.6.1-.8.3-.3.2-.5.4-.5.7l-.7 2Z"/><path d="M36.8 22.5H18c-.5 0-.9-.2-1.1-.5-.2-.3-.3-.7-.1-1.2l.6-2c.1-.4.4-.7.7-1 .4-.2.8-.4 1.2-.4H38c.5 0 .9.2 1.1.6.2.2.3.6.2 1.2l-.7 2a2 2 0 0 1-.7 1c-.4.2-.7.3-1.1.3ZM18 21.1v.2h18.8l.4-.1c.2-.1.3-.3.3-.4l.7-2v-.2H19.4c-.2 0-.3 0-.5.2l-.3.4-.6 2Z"/></g><defs><clipPath id="a"><path fill="#fff" d="M0 0H55.7V51.8H0z"/></clipPath></defs></svg>