<svg xmlns="http://www.w3.org/2000/svg" fill="none" viewBox="0 0 56 51.935"><g fill="#0b0f5e"><path d="M38.702 51.334H10.328c-2.005 0-3.81-.702-5.615-2.006-1.704-1.303-3.008-3.007-3.61-4.812a7.32 7.32 0 0 1-.1-5.113L7.02 22.86a1240.931 1240.931 0 0 1 7.018-19.25l.802-1.304c.301-.401.702-.702 1.204-1.003.601-.5 1.303-.701 2.005-.701h26.469c2.005 0 3.81.802 4.913 2.406a6.116 6.116 0 0 1 .802 5.514L41.81 36.395a13.034 13.034 0 0 1-2.707 5.514c-1.003 1.003-2.707 1.504-5.114 1.504H7.12a1.707 1.707 0 0 1-2.606-2.206c.4-.601 1.203-1.203 2.606-1.203h26.77c2.005 0 2.607-.501 2.707-.601.2-.2.902-1.003 1.805-4.01L46.823 7.52c.4-1.304 0-2.006-.301-2.507-.501-.702-1.103-1.003-2.105-1.003H20.955a339.685 339.685 0 0 0-3.108 0 2.005 2.005 0 0 0-.501.502l-.3.501-.502 1.003-.501 1.103A7309.734 7309.734 0 0 0 4.212 40.606c-.301.802-.301 1.704.1 2.707A6.918 6.918 0 0 0 6.82 46.52c1.102 1.003 2.306 1.304 3.509 1.304h28.374c1.002 0 1.905-.301 2.807-1.003.902-.602 1.404-1.404 1.704-2.406l8.523-27.873c.3-1.003.2-1.704-.301-2.506l-1.003-.702a1.713 1.713 0 0 1 1.203-3.209c1.003.401 2.006 1.003 2.507 2.006a6.016 6.016 0 0 1 .802 5.414l-8.422 27.872a8.02 8.02 0 0 1-3.008 4.211 7.82 7.82 0 0 1-4.812 1.705z"/><path d="M38.702 51.935H10.328a10.928 10.928 0 0 1-9.826-7.219 7.82 7.82 0 0 1 0-5.514l.2-.501A1806.905 1806.905 0 0 1 13.337 3.409l1.002-1.504L15.441.702C16.343.3 17.045 0 18.048 0h26.469c2.306 0 4.11 1.003 5.414 2.707a6.717 6.717 0 0 1 .802 6.016l-.2.802h1.403a6.316 6.316 0 0 1 2.807 2.206 6.617 6.617 0 0 1 .903 6.015L47.124 45.62a8.622 8.622 0 0 1-3.109 4.512 8.422 8.422 0 0 1-5.213 1.804ZM1.405 40.105c-.402 1.403-.301 2.706.2 4.21a9.826 9.826 0 0 0 3.409 4.512 8.723 8.723 0 0 0 5.314 2.005h28.374c1.604 0 3.108-.601 4.511-1.704 1.404-1.003 2.306-2.306 2.707-3.81l8.523-27.973c.5-1.805.3-3.509-.702-5.013a5.214 5.214 0 0 0-2.306-1.604 1.103 1.103 0 0 0-.903 2.005c.602.3 1.003.602 1.304 1.003.601.902.702 1.804.4 3.008l-8.421 27.872c-.401 1.003-1.003 2.005-2.005 2.707a5.013 5.013 0 0 1-3.008 1.103H10.227c-1.203 0-2.506-.3-3.81-1.303a7.42 7.42 0 0 1-2.606-3.51 4.411 4.411 0 0 1-.1-3.108L15.54 7.018a21.255 21.255 0 0 0 1.003-2.105c0-.401.2-.602.401-.802l.602-.502.5-.1h26.37a3.008 3.008 0 0 1 2.606 1.203c.602.802.702 1.805.401 3.008l-8.522 27.873c-.902 3.008-1.504 4.01-1.905 4.21-.2.301-1.002.803-3.108.803H7.02c-1.203 0-1.805.501-2.005.902a1.103 1.103 0 0 0 1.604 1.504l.2-.2h26.97c2.207 0 3.81-.402 4.713-1.304 1.003-.902 1.705-2.607 2.507-5.213L49.43 8.322c.601-1.805.3-3.51-.702-5.013a5.214 5.214 0 0 0-4.412-2.206H17.948c-.602 0-1.204.3-1.705.601a4.712 4.712 0 0 0-1.805 2.206 17.044 17.044 0 0 0-1.002 2.206L7.42 22.96 1.605 39.603zm4.01 4.31c.501.602 1.003 1.204 1.704 1.705 1.003.802 2.106 1.203 3.209 1.203h28.374c.902 0 1.604-.3 2.406-.902a4.01 4.01 0 0 0 1.604-2.106l8.422-27.972c.3-.702.2-1.304-.2-2.006l-.803-.3-.902-.602-7.018 23.26c-.802 2.908-1.705 4.713-2.808 5.715-1.102 1.103-3.007 1.705-5.514 1.705H7.32c-.5.4-1.202.501-1.804.4ZM16.745 7.42 5.013 39.904a4.01 4.01 0 0 1 2.005-.501h26.77c1.905 0 2.306-.401 2.306-.401.1 0 .702-.702 1.604-3.71l8.522-27.973c.301-1.003 0-1.604-.3-2.005-.402-.501-.803-.702-1.605-.702H18.048l-.2.2-.301.602a14.738 14.738 0 0 0-1.003 2.005z"/><path d="M39.403 14.738H20.655c-.401 0-.802-.2-1.003-.601-.2-.2-.3-.602-.2-1.203l.701-2.006c0-.3.301-.601.702-1.002.3-.2.702-.3 1.103-.3h18.749c.501 0 .902.2 1.002.5.201.301.402.702.201 1.204l-.602 2.005a2.005 2.005 0 0 1-.701 1.002c-.401.2-.802.401-1.204.401zm-18.849-1.403v.2h18.85c.2 0 .3 0 .5-.2l.302-.401.601-2.006v-.1H22.058l-.4.1c-.201.1-.302.301-.302.402l-.701 2.005zm-3.108 7.72v.702l.702.2h18.749c.2 0 .501 0 .802-.2l.501-.702.602-2.005v-.702c-.2-.2-.401-.301-.702-.301H19.452c-.301 0-.602.1-.803.3-.3.201-.5.402-.5.703z"/><path d="M36.897 22.559h-18.85c-.5 0-.901-.2-1.102-.502-.2-.3-.3-.701-.1-1.203l.601-2.005c.1-.401.401-.702.702-1.003.401-.2.802-.4 1.203-.4h18.75c.5 0 .901.2 1.102.601.2.2.3.602.2 1.203l-.701 2.005A2.005 2.005 0 0 1 38 22.258c-.401.2-.702.3-1.103.3zm-18.85-1.404v.2h18.85l.401-.1c.2-.1.3-.3.3-.4l.703-2.006v-.2H19.45c-.2 0-.3 0-.5.2l-.302.401-.601 2.005zm2.006-8.02v.701l.602.3h18.748c.301 0 .502-.1.803-.3.3-.2.4-.401.5-.702l.703-2.005-.1-.702c-.1-.2-.301-.2-.602-.2H21.958c-.3 0-.501 0-.802.2l-.501.702z"/></g></svg>