<?xml version="1.0" encoding="UTF-8"?>
<svg width="18px" height="25px" viewBox="0 0 18 25" version="1.1" xmlns="http://www.w3.org/2000/svg" xmlns:xlink="http://www.w3.org/1999/xlink">
    <!-- Generator: sketchtool 64 (101010) - https://sketch.com -->
    <title>F8EA0060-198D-4140-9D37-0BB7F3518666</title>
    <desc>Created with sketchtool.</desc>
    <g id="Ponto-de-apoio" stroke="none" stroke-width="1" fill="none" fill-rule="evenodd">
        <g id="ponto_de_apoio2" transform="translate(-325.000000, -552.000000)" fill="#0A115F" fill-rule="nonzero">
            <g id="Group" transform="translate(325.000000, 552.500000)">
                <path d="M8.0750625,23.5157813 C1.26421875,13.6420781 0,12.6287344 0,9 C0,4.02942187 4.02942187,0 9,0 C13.9705781,0 18,4.02942187 18,9 C18,12.6287344 16.7357812,13.6420781 9.9249375,23.5157813 C9.47798438,24.1614375 8.52196875,24.1613906 8.0750625,23.5157813 Z M9,12.75 C11.0710781,12.75 12.75,11.0710781 12.75,9 C12.75,6.92892188 11.0710781,5.25 9,5.25 C6.92892188,5.25 5.25,6.92892188 5.25,9 C5.25,11.0710781 6.92892188,12.75 9,12.75 Z" id="Shape"></path>
            </g>
        </g>
    </g>
</svg>