<svg xmlns="http://www.w3.org/2000/svg" width="26" height="27" viewBox="0 0 26 27">
    <g fill="none" stroke="#0A115F" stroke-width="2">
        <path fill="#0A115F" d="M11.25 10.5V24c.296 0 .59-.059.863-.172 3.39-1.413 8.445-5.766 9.942-13.327L11.25 10.5zM10.387.172l-9 3.75C.547 4.27-.001 5.09 0 6c0 1.511.152 3.019.451 4.5H11.25V0c-.295.01-.587.068-.863.172z" transform="translate(1.75 2)"/>
        <path d="M10.383 23.828c.275.114.57.172.867.172V10.5H.451c1.382 6.868 5.773 11.594 9.932 13.328zM21.117 3.922l-9-3.75C11.841.067 11.548.01 11.253 0h-.003v10.5h10.805c.295-1.482.444-2.989.445-4.5 0-.908-.545-1.728-1.383-2.078h0z" transform="translate(1.75 2)"/>
    </g>
</svg>
