<svg xmlns="http://www.w3.org/2000/svg" width="24" height="25" viewBox="0 0 24 25">
    <path fill="#0A115F" d="M12 5.145c-2.565 0-4.645 2.08-4.645 4.645 0 2.565 2.08 4.645 4.645 4.645 2.565 0 4.645-2.08 4.645-4.645 0-2.564-2.08-4.645-4.645-4.645zm0 6.968c-1.282 0-2.323-1.04-2.323-2.323 0-1.282 1.04-2.322 2.323-2.322 1.282 0 2.323 1.04 2.323 2.322 0 1.283-1.04 2.323-2.323 2.323zM12 .5C5.371.5 0 5.871 0 12.5s5.371 12 12 12 12-5.371 12-12-5.371-12-12-12zm0 21.677c-2.405 0-4.602-.885-6.295-2.342.72-1.112 1.955-1.867 3.368-1.91 1.006.309 1.964.464 2.927.464.963 0 1.921-.15 2.927-.465 1.413.049 2.647.799 3.368 1.911-1.693 1.457-3.89 2.342-6.295 2.342zm7.873-4.069c-1.181-1.52-3.005-2.511-5.086-2.511-.493 0-1.258.464-2.787.464-1.524 0-2.294-.464-2.787-.464-2.076 0-3.9.992-5.086 2.511-1.132-1.582-1.804-3.518-1.804-5.608 0-5.337 4.34-9.677 9.677-9.677s9.677 4.34 9.677 9.677c0 2.09-.672 4.026-1.804 5.608z"/>
</svg>
