<?xml version="1.0" encoding="UTF-8"?>
<svg width="14px" height="18px" viewBox="0 0 14 18" version="1.1" xmlns="http://www.w3.org/2000/svg" xmlns:xlink="http://www.w3.org/1999/xlink">
    <!-- Generator: sketchtool 64 (101010) - https://sketch.com -->
    <title>37780AF1-7FFA-4BF3-8A45-5AA1F0E58FA0</title>
    <desc>Created with sketchtool.</desc>
    <g id="Modo-camuflado" stroke="none" stroke-width="1" fill="none" fill-rule="evenodd">
        <g id="Camuflado" transform="translate(-146.000000, -504.000000)" fill="#26236B" fill-rule="nonzero">
            <g id="Group-7" transform="translate(70.500000, 502.866295)">
                <g id="Group-4" transform="translate(76.000000, 1.000000)">
                    <path d="M4.32,17.32 C5.84,17.32 7.24666667,16.94 8.54,16.18 C9.80666667,15.46 10.8066667,14.4733333 11.54,13.22 C12.3,11.9266667 12.68,10.52 12.68,9 C12.68,7.48 12.3,6.07333333 11.54,4.78 C10.8066667,3.52666667 9.80666667,2.54 8.54,1.82 C7.24666667,1.06 5.84,0.68 4.32,0.68 C2.8,0.68 1.42,1.04666667 0.18,1.78 C1.44666667,2.51333333 2.44666667,3.51333333 3.18,4.78 C3.94,6.07333333 4.32,7.48 4.32,9 C4.32,10.52 3.94,11.9266667 3.18,13.22 C2.44666667,14.4866667 1.44666667,15.4866667 0.18,16.22 C1.42,16.9533333 2.8,17.32 4.32,17.32 Z" id="" transform="translate(6.430000, 9.000000) rotate(-180.000000) translate(-6.430000, -9.000000) "></path>
                </g>
            </g>
        </g>
    </g>
</svg>