<?xml version="1.0" encoding="UTF-8"?>
<svg width="19px" height="19px" viewBox="0 0 19 19" version="1.1" xmlns="http://www.w3.org/2000/svg" xmlns:xlink="http://www.w3.org/1999/xlink">
    <!-- Generator: sketchtool 64 (101010) - https://sketch.com -->
    <title>70C91903-0495-49CE-A967-2CAEA4BA5824</title>
    <desc>Created with sketchtool.</desc>
    <g id="Modo-camuflado" stroke="none" stroke-width="1" fill="none" fill-rule="evenodd">
        <g id="Camuflado" transform="translate(-71.000000, -503.000000)" fill="#FF8200" fill-rule="nonzero">
            <g id="Group-7" transform="translate(70.500000, 502.866295)">
                <g id="Group-2">
                    <path d="M10.82,2.92 L10.82,0.46 L9.18,0.46 L9.18,2.92 L10.82,2.92 Z M15.54,5.2 L17.04,3.7 L15.86,2.54 L14.38,4.02 L15.54,5.2 Z M4.46,5.2 L5.62,4.02 L4.14,2.54 L2.96,3.7 L4.46,5.2 Z M10,14.56 C10.9066667,14.56 11.7433333,14.3366667 12.51,13.89 C13.2766667,13.4433333 13.8833333,12.8366667 14.33,12.07 C14.7766667,11.3033333 15,10.4666667 15,9.56 C15,8.65333333 14.7766667,7.81666667 14.33,7.05 C13.8833333,6.28333333 13.2766667,5.67666667 12.51,5.23 C11.7433333,4.78333333 10.9066667,4.56 10,4.56 C9.09333333,4.56 8.25666667,4.78333333 7.49,5.23 C6.72333333,5.67666667 6.11666667,6.28333333 5.67,7.05 C5.22333333,7.81666667 5,8.65333333 5,9.56 C5,10.4666667 5.22333333,11.3033333 5.67,12.07 C6.11666667,12.8366667 6.72333333,13.4433333 7.49,13.89 C8.25666667,14.3366667 9.09333333,14.56 10,14.56 Z M19.18,10.42 L19.18,8.74 L16.68,8.74 L16.68,10.42 L19.18,10.42 Z M3.32,10.42 L3.32,8.74 L0.82,8.74 L0.82,10.42 L3.32,10.42 Z M4.14,16.64 L5.62,15.12 L4.46,13.94 L2.96,15.46 L4.14,16.64 Z M15.86,16.64 L17.04,15.46 L15.54,13.98 L14.38,15.12 L15.86,16.64 Z M10.82,18.72 L10.82,16.24 L9.18,16.24 L9.18,18.72 L10.82,18.72 Z" id=""></path>
                </g>
            </g>
        </g>
    </g>
</svg>