<?xml version="1.0" encoding="UTF-8"?>
<svg width="14px" height="22px" viewBox="0 0 14 22" version="1.1" xmlns="http://www.w3.org/2000/svg" xmlns:xlink="http://www.w3.org/1999/xlink">
    <!-- Generator: sketchtool 64 (101010) - https://sketch.com -->
    <title>6DF65A04-43CA-4127-BF6B-34331980DBB5</title>
    <desc>Created with sketchtool.</desc>
    <g id="Modo-camuflado" stroke="none" stroke-width="1" fill="none" fill-rule="evenodd">
        <g id="Camuflado" transform="translate(-220.000000, -502.000000)" fill="#0A115F" fill-rule="nonzero" stroke="#26236B">
            <g id="Group-7" transform="translate(70.500000, 502.866295)">
                <g id="Group-5" transform="translate(150.000000, 0.000000)">
                    <path d="M6.78572237,19.8571463 C6.98661547,19.8571463 7.14286566,19.7008961 7.14286566,19.500003 L7.14286566,17 L9.64286864,17 C9.84376173,17 10.0000119,16.8437498 10.0000119,16.6428567 L10.0000119,15.9285702 C10.0000119,15.7276771 9.84376173,15.5714269 9.64286864,15.5714269 L7.14286566,15.5714269 L7.14286566,12.6696377 C10.3571552,12.3124944 12.8571582,9.58927688 12.8571582,6.28570151 C12.8571582,2.49105413 9.57590427,-0.533503044 5.69197107,-0.0982346684 C2.67857462,0.236587159 0.267857462,2.72542941 0.0223214552,5.76114732 C-0.256696735,9.29909796 2.33259207,12.3013337 5.71429253,12.6696377 L5.71429253,15.5714269 L3.21428955,15.5714269 C3.01339645,15.5714269 2.85714626,15.7276771 2.85714626,15.9285702 L2.85714626,16.6428567 C2.85714626,16.8437498 3.01339645,17 3.21428955,17 L5.71429253,17 L5.71429253,19.500003 C5.71429253,19.7008961 5.87054271,19.8571463 6.07143581,19.8571463 L6.78572237,19.8571463 Z M6.42857313,11.2857075 C3.67187938,11.2857075 1.42857313,9.04240123 1.42857313,6.28569555 C1.42857313,3.5290018 3.67187938,1.28569555 6.42857313,1.28569555 C9.18527881,1.28569555 11.4285851,3.5290018 11.4285851,6.28569555 C11.4285851,9.04240123 9.18527881,11.2857075 6.42857313,11.2857075 Z" id=""></path>
                </g>
            </g>
        </g>
    </g>
</svg>