<?xml version="1.0" encoding="UTF-8"?>
<svg width="24px" height="12px" viewBox="0 0 24 12" version="1.1" xmlns="http://www.w3.org/2000/svg" xmlns:xlink="http://www.w3.org/1999/xlink">
    <!-- Generator: sketchtool 64 (101010) - https://sketch.com -->
    <title>AF243C43-1F8D-45E2-A316-5B978EA775CB</title>
    <desc>Created with sketchtool.</desc>
    <g id="Configuração" stroke="none" stroke-width="1" fill="none" fill-rule="evenodd">
        <g id="Configuração_5" transform="translate(-16.000000, -428.000000)" fill="#0A115F">
            <path d="M37.7781331,433.367057 C37.8302804,433.284717 37.798992,433.202378 37.7781331,433.130331 C37.371384,431.874657 36.5265974,431.051263 35.2333439,430.721906 C34.2946921,430.485181 33.3768993,430.629274 32.5008243,430.989509 C31.729044,431.308574 31.0928466,431.812902 30.5192261,432.420154 C29.8100226,433.171501 29.257261,434.025771 28.7357878,434.910919 C28.3186092,435.621095 27.8284244,436.290102 27.2652334,436.897355 C26.7750486,437.43256 26.2640048,437.936889 25.6695254,438.348585 C24.6891558,439.017592 23.6253504,439.429289 22.4363915,439.56309 C21.2578621,439.696892 20.1419095,439.542505 19.0885336,439.0073 C17.4406783,438.153029 16.4185908,436.825308 16.0952774,435.024135 C15.8136819,433.480273 16.1578542,432.039335 17.1069354,430.783661 C17.9934399,429.620618 19.1615398,428.900149 20.6112353,428.632546 C21.5290282,428.467867 22.4363915,428.509037 23.322896,428.838394 C24.0633879,429.105997 24.6578674,429.558863 25.0228986,430.258747 C25.4713656,431.12331 25.4296477,431.998165 25.0228986,432.873021 C24.6787263,433.59349 24.1363942,434.138988 23.4376201,434.540392 C22.6449808,435.003551 21.7793353,435.209399 20.8615425,435.219691 C20.0376148,435.229984 19.2345461,435.106475 18.4627658,434.82858 C18.4419068,434.818287 18.4314774,434.818287 18.4106184,434.818287 C18.2228881,434.756533 18.1811702,434.78741 18.2333176,434.982966 C18.3480417,435.42554 18.5462015,435.826944 18.8382265,436.187178 C19.3805586,436.866478 20.0793327,437.298759 20.9345487,437.47373 C21.6020344,437.607531 22.2590907,437.535485 22.9161469,437.370806 C23.6983567,437.17525 24.3762718,436.773846 24.9707513,436.248933 C25.8468263,435.477002 26.5351709,434.550684 27.1087914,433.542028 C27.7762771,432.368692 28.5897753,431.298281 29.6118628,430.392549 C30.6443797,429.476524 31.8333386,428.869271 33.2100278,428.642838 C33.7106421,428.560499 34.2216858,428.529622 34.7327296,428.560499 C35.8799706,428.632546 36.9124876,429.013365 37.8198509,429.702957 C38.4873366,430.217578 39.0192393,430.835123 39.4051294,431.586469 C39.8118785,432.389277 40.0100384,433.243548 39.9996089,434.14928 C39.9891794,435.271153 39.665866,436.290102 39.0192393,437.206127 C38.0597286,438.544141 36.7560456,439.336657 35.1081903,439.56309 C34.1069617,439.696892 33.1474511,439.583675 32.2505172,439.110224 C31.3848716,438.647065 30.8425395,437.936889 30.7173859,436.959109 C30.6235208,436.228348 30.8112511,435.559341 31.2075708,434.941796 C31.8333386,433.953724 32.7615609,433.377349 33.887943,433.099454 C35.1186197,432.800974 36.3284376,432.903898 37.5278259,433.305302 C37.6008322,433.325887 37.6842679,433.377349 37.7781331,433.367057 Z M20.8052501,432.840037 C21.2821956,432.870065 21.759141,432.78999 22.2144071,432.589801 C22.7238716,432.369593 23.135779,432.049291 23.3308931,431.548819 C23.4718088,431.17847 23.3308931,430.848158 22.9623443,430.647969 C22.6805129,430.497828 22.3661625,430.417752 22.0518121,430.397733 C21.1304402,430.327667 20.284946,430.537865 19.5370088,431.038337 C19.0925824,431.338621 18.745713,431.698961 18.4964006,432.149385 C18.4422022,432.24948 18.4422022,432.309536 18.5614386,432.359584 C18.6047973,432.369593 18.6373163,432.399621 18.680675,432.409631 C19.3310551,432.689895 20.024794,432.860056 20.8052501,432.840037 Z M35.2399993,435.310938 C34.5502068,435.290977 33.9143043,435.420718 33.3538479,435.78998 C33.0412857,435.999561 32.7933915,436.259043 32.6640554,436.608344 C32.5347193,436.987586 32.6640554,437.296968 33.0412857,437.506549 C33.3107359,437.65625 33.6125201,437.73609 33.9250823,437.756051 C35.1429972,437.845871 36.1776859,437.476609 37.0075926,436.648265 C37.1908187,436.458644 37.3524888,436.249063 37.4818249,436.019521 C37.568049,435.869821 37.568049,435.869821 37.3956008,435.78998 C37.3632668,435.77002 37.3309328,435.76004 37.2985988,435.75006 C36.6303623,435.460638 35.9513478,435.280997 35.2399993,435.310938 Z" id="Shape"></path>
        </g>
    </g>
</svg>